<?xml version="1.0" encoding="utf-8"?>
<!DOCTYPE svg PUBLIC "-//W3C//DTD SVG 1.1//EN" "http://www.w3.org/Graphics/SVG/1.1/DTD/svg11.dtd">
<svg version="1.1" xmlns="http://www.w3.org/2000/svg" xmlns:xlink="http://www.w3.org/1999/xlink" x="0px" y="0px"
	 viewBox="0 0 50 50">
<g>
	<path fill="#A04B4B" d="m28.5,9.45l-2,0l0,-1.6c0,-0.8 -0.7,-1.4 -1.5,-1.4s-1.5,0.6 -1.5,1.4l0,1.6l-2,0l0,-1.5c0,-1.9 1.6,-3.4 3.5,-3.4s3.5,1.5 3.5,3.4l0,1.5z"/>
	<path fill="#FCDA4F" d="m41.1,36.65c-2,-0.9 -3.4,-2.7 -3.4,-5.1l0,-10.8c0,-7 -5.7,-12.7 -12.7,-12.7s-12.7,5.7 -12.7,12.7c0,0 0,7.9 0,10.8c0,2.4 -1.4,4.3 -3.4,5.1c-1.7,0.7 -2.9,2.4 -2.9,4.2l0,0.1c0,2.5 8.5,4.5 19,4.5s19,-2 19,-4.4l0,-0.1c0,-1.9 -1.2,-3.6 -2.9,-4.3z"/>
	<path fill="#FFF250" d="m8.9,36.65c2.2,0 7.5,-2.1 7.5,-6.1c0,-2.9 0.1,-9 0.1,-9c0,-7 5.7,-12.7 12.7,-12.7c0.1,0 0.2,0 0.3,0c-1.4,-0.5 -2.9,-0.9 -4.5,-0.9c-7,0 -12.7,5.7 -12.7,12.7c0,0 0,7.9 0,10.8c0,2.5 -1.4,4.4 -3.4,5.2l0,0z"/>
	<ellipse fill="#E5B52E" ry="3" rx="17" cy="40.25" cx="25"/>
	<path fill="#A04B4B" d="m30,37.45c0,2.8 -2.2,4.9 -5,4.9s-5,-2.1 -5,-4.9l0,0c3.3,-0.2 6.6,-0.2 10,0l0,0z"/>
	<ellipse fill="#FFF" ry="1" rx="2" cy="10.08375" cx="25.94929" transform="matrix(0.6684 -0.7438 0.7438 0.6684 -5.32 25.9752)"/>
	<path fill="#FFA13B" d="m37.7,25.55l0,-4.8c-3.1,-0.9 -7.5,-1.4 -12.3,-1.4c-5.2,0 -9.9,0.7 -13,1.7c0,0.7 0,2.7 0,4.9c3.1,-0.7 7.9,-1.1 13.4,-1.1c4.6,-0.1 8.8,0.2 11.9,0.7z"/>
</g>
</svg>
