<?xml version="1.0" encoding="utf-8"?>
<!DOCTYPE svg PUBLIC "-//W3C//DTD SVG 1.1//EN" "http://www.w3.org/Graphics/SVG/1.1/DTD/svg11.dtd">
<svg version="1.1" xmlns="http://www.w3.org/2000/svg" xmlns:xlink="http://www.w3.org/1999/xlink" x="0px" y="0px"
	 viewBox="0 0 64 64" enable-background="new 0 0 64 64" xml:space="preserve">
<g>
	<g>
		<path fill="#A04B4B" d="M35.5,15h-2v-1.6c0-0.8-0.7-1.4-1.5-1.4s-1.5,0.6-1.5,1.4V15h-2v-1.5c0-1.9,1.6-3.4,3.5-3.4
			s3.5,1.5,3.5,3.4V15z"/>
	</g>
	<g>
		<path fill="#FCDA4F" d="M48.1,42.2c-2-0.9-3.4-2.7-3.4-5.1V26.3c0-7-5.7-12.7-12.7-12.7s-12.7,5.7-12.7,12.7c0,0,0,7.9,0,10.8
				c0,2.4-1.4,4.3-3.4,5.1c-1.7,0.7-2.9,2.4-2.9,4.2v0.1C13,49,21.5,51,32,51s19-2,19-4.4v-0.1C51,44.6,49.8,42.9,48.1,42.2z"/>
	</g>
	<g>
		<path fill="#FFF250" d="M15.9,42.2c2.2,0,7.5-2.1,7.5-6.1c0-2.9,0.1-9,0.1-9c0-7,5.7-12.7,12.7-12.7c0.1,0,0.2,0,0.3,0
				c-1.4-0.5-2.9-0.9-4.5-0.9c-7,0-12.7,5.7-12.7,12.7c0,0,0,7.9,0,10.8C19.3,39.5,17.9,41.4,15.9,42.2L15.9,42.2z"/>
	</g>
	<g>
		<ellipse fill="#E5B52E" cx="32" cy="45.8" rx="17" ry="3"/>
	</g>
	<g>
		<path fill="#A04B4B" d="M37,43c0,2.8-2.2,4.9-5,4.9s-5-2.1-5-4.9l0,0C30.3,42.8,33.6,42.8,37,43L37,43z"/>
	</g>
	<g>
		<ellipse transform="matrix(0.6684 -0.7438 0.7438 0.6684 -5.32 25.9752)" fill="#FFFFFF" cx="26.5" cy="19" rx="2" ry="1"/>
	</g>
	<g>
		<path fill="#FFA13B" d="M44.7,31.1v-4.8c-3.1-0.9-7.5-1.4-12.3-1.4c-5.2,0-9.9,0.7-13,1.7c0,0.7,0,2.7,0,4.9
				c3.1-0.7,7.9-1.1,13.4-1.1C37.4,30.3,41.6,30.6,44.7,31.1z"/>
	</g>
</g>
</svg>
